<?xml version="1.0" encoding="utf-8"?>
<!-- Generator: Adobe Illustrator 21.0.0, SVG Export Plug-In . SVG Version: 6.00 Build 0)  -->
<svg version="1.1" id="Layer_1" focusable="false" xmlns="http://www.w3.org/2000/svg" xmlns:xlink="http://www.w3.org/1999/xlink"
	 x="0px" y="0px" viewBox="0 0 512 512" style="enable-background:new 0 0 512 512;" xml:space="preserve">
<path d="M502.1,438.9L404.2,341c-4.4-4.4-10.4-6.9-16.7-6.9h-16c27.1-34.7,43.2-78.3,43.2-125.7C414.7,95.5,323.2,4,210.3,4
	S6,95.5,6,208.3s91.5,204.3,204.3,204.3c47.5,0,91.1-16.1,125.7-43.2v16c0,6.3,2.5,12.3,6.9,16.7l97.9,97.9c9.2,9.2,24.2,9.2,33.3,0
	l27.8-27.8C511.3,463.1,511.3,448.2,502.1,438.9z M210.3,334.1c-69.5,0-125.7-56.2-125.7-125.7c0-69.5,56.2-125.7,125.7-125.7
	c69.5,0,125.7,56.2,125.7,125.7C336.1,277.8,279.9,334.1,210.3,334.1z"/>
</svg>
